# xmcd CD database file
#
# Track frame offsets:
#	150
#	11577
#	24612
#	37200
#	48842
#	60460
#	72665
#	85665
#	97487
#	108485
#	119267
#	129902
#	141457
#	153220
#	164312
#	176057
#	187467
#	199262
#	211920
#	225057
#	237275
#	249767
#	262535
#	275392
#	288250
#	300815
#	315822
#	329695
#	343982
#
# Disc length: 4713 seconds
#
# Revision: 2
# Processed by: cddbd v1.5.2PL0 Copyright (c) Steve Scherf et al.
# Submitted via: CDex 1.51
#
DISCID=9912671d
DTITLE=Roy Acuff - The King of Country Music
DYEAR=1993
DGENRE=Country
TTITLE0=Tied Down
TTITLE1=What Will I Do
TTITLE2=Is it Love or is it Lies
TTITLE3=Lonesome Me
TTITLE4=Sweep Around Your Own Back Door
TTITLE5=Don't Say Goodbye
TTITLE6=Swamp Lily
TTITLE7=Sixteen Chickens and a Tambourine
TTITLE8=Rushing Around
TTITLE9=Whoa Mule
TTITLE10=Sunshine Special
TTITLE11=I Closed My Heart's Door
TTITLE12=I'm Planting a Rose
TTITLE13=River of Crystal
TTITLE14=Please Daddy Forgive
TTITLE15=Streamline Heartbreaker
TTITLE16=I Closed My Heart's Door
TTITLE17=Six More Days
TTITLE18=The Thief Upon Thee Tree
TTITLE19=Don't Judge Your Neighbor
TTITLE20=The Night Spots (Of the Town)
TTITLE21=The Great Speckled Bird
TTITLE22=Lonely Mound of Clay
TTITLE23=Pins and Needles (In My Heart)
TTITLE24=Wabash Cannonball
TTITLE25=The Great Judgement Morning
TTITLE26=The Wreck on the Highway
TTITLE27=The Precious Jewel
TTITLE28=Night Train to Memphis
EXTD=YEAR: 1993
EXTT0=
EXTT1=
EXTT2=
EXTT3=
EXTT4=
EXTT5=
EXTT6=
EXTT7=
EXTT8=
EXTT9=
EXTT10=
EXTT11=
EXTT12=
EXTT13=
EXTT14=
EXTT15=
EXTT16=
EXTT17=
EXTT18=
EXTT19=
EXTT20=
EXTT21=
EXTT22=
EXTT23=
EXTT24=
EXTT25=
EXTT26=
EXTT27=
EXTT28=
PLAYORDER=
